<?xml version="1.0" encoding="UTF-8"?>
<svg width="74px" height="101px" viewBox="0 0 74 101" version="1.1" xmlns="http://www.w3.org/2000/svg" xmlns:xlink="http://www.w3.org/1999/xlink">
    <!-- Generator: Sketch 43.2 (39069) - http://www.bohemiancoding.com/sketch -->
    <title>note</title>
    <desc>Created with Sketch.</desc>
    <defs></defs>
    <g id="Page-1" stroke="none" stroke-width="1" fill="none" fill-rule="evenodd">
        <g id="note" fill-rule="nonzero" fill="#000000">
            <g id="Group">
                <path d="M67.55,35.572 C60.219,31.489 56.89,30.404 49.56,26.319 C48.237,25.582 46.934,24.916 45.711,24.3 C45.711,21.626 45.711,15.948 45.711,13.275 C51.773,16.654 57.837,20.033 63.9,23.412 C72.444,28.173 78.086,18.081 69.549,13.325 C62.219,9.239 56.89,6.155 49.56,2.07 C43.956,-1.054 38.74,2.506 38.223,7.354 C38.165,7.625 38.134,7.915 38.134,8.225 C38.132,27.066 38.132,45.909 38.131,64.751 C33.834,61.656 28.091,60.218 21.879,60.218 C9.974,60.218 0.695,68 0.695,78.903 C0.695,92.7793151 10.805,100 23.156,100 C35.51,100 44.539,93.67 45.61,81.059 L45.708,79.204 C45.71,66.309 45.71,50.416 45.71,37.522 C51.773,40.901 55.837,42.28 61.9,45.658 C70.446,50.419 76.086,40.329 67.55,35.572 Z M23.156,92.422 C13.999,92.422 7.91,88.546 8.273,78.902 C8.577,70.839 15.088,67.795 21.879,67.795 C30.195,67.795 36.655,70 37.122,80.108 C36.655,89.175 31.402,92.422 23.156,92.422 Z" id="Shape"></path>
            </g>
        </g>
    </g>
</svg>