<svg version="1" xmlns="http://www.w3.org/2000/svg" width="1077.333" height="1077.333" viewBox="0 0 808.000000 808.000000"><path d="M463.8 7.6c-.2.1-1.9.5-3.8.7-3.7.5-4.9.8-11.5 3.5-15.3 6.2-28.1 21-33.2 38.7-1.7 5.6-1.8 20.2-2.1 236.7L413 518l-4.8-3.3c-2.6-1.7-6.5-4.2-8.7-5.4-2.2-1.1-5.7-3.1-7.9-4.2-4.9-2.8-20.7-9.3-26.6-11-2.5-.7-5.4-1.7-6.5-2.1-2.1-.9-14.5-4-18-4.6-2.2-.3-6.6-1.2-10.5-1.9-14.1-2.8-49.6-4.5-64.5-3.1-7.8.7-14.9 1.6-16.5 2.1-.8.2-3.5.7-5.9 1-2.3.4-5.3 1-6.5 1.4-1.1.5-2.4.9-2.8 1-.5 0-.9.1-1 .2-.2 0-1.3.2-2.5.5-2.3.4-16.3 4.9-19.8 6.4-11.4 4.7-31.4 15.5-36.5 19.7-.8.7-4.6 3.8-8.5 6.9-7.5 6.1-14.5 13.1-20.4 20.4-2 2.5-3.8 4.7-4.1 5-.9.8-7.5 11.2-9.6 15-1 1.9-2.3 3.8-2.9 4.2-.5.4-.7.8-.3.8.4 0-.4 2.1-1.7 4.7-1.3 2.7-2.5 5.5-2.7 6.3-.2.8-.6 1.7-.9 2-.9.8-6.1 19.1-6.4 22.7-.1 1.7-.5 3.5-.8 4-1.7 2.7-2.6 32.4-1.3 43.8 1.2 10.1 1.7 14.1 2.6 18 .5 2.2 1.2 5.6 1.5 7.5.3 1.9 1 4.8 1.5 6.5.6 1.6 1.9 5.8 3 9.3 2.6 8 7.9 20.2 9.8 22.4.8 1 1.2 1.8.8 1.8-.4 0 .2 1.3 1.3 2.9 1.2 1.6 2.1 3.2 2.1 3.5 0 1.8 13.7 19.1 20.9 26.5 13.6 13.7 24.6 21.7 42.1 30.5 9.3 4.6 25.7 10.9 34.5 13.2 1.7.4 3.2.8 3.5.9 2.2.6 7.6 1.8 9.3 2 1.2.2 3.3.6 4.7.9 1.4.3 4.5.9 7 1.2 2.5.3 5.8.8 7.5 1 1.6.3 8.2.7 14.7.9 6.4.3 12.1.5 12.5.6.4.1 1 .1 1.3 0 .3-.1 5.5-.3 11.5-.5 6.1-.3 13.3-.8 16-1.2 2.8-.3 5.7-.7 6.5-.8 1.3-.2 8.2-1.2 13.5-2.1 1.1-.2 2.7-.6 3.5-.9.8-.3 2.8-.8 4.3-1 4.6-.8 23.1-6.7 24.2-7.7.5-.5 1.5-.9 2.2-.9 2.8 0 28.3-13.3 29.1-15.2.2-.5.9-.8 1.4-.8 1.5 0 15-11.1 21.3-17.5 12-12.1 19.8-23.1 27.4-39 4.5-9.1 10.3-24.8 11.6-31 1.9-9.2 4.3-22.1 4.4-23.5 0-.8.4-4.7.8-8.5.4-3.9.7-83.8.8-177.7 0-159.7.1-170.8 1.7-170.8.9 0 1.9.4 2.2.9.6 1 3 2.3 25.6 13.6 13.7 6.9 26.4 13 48 23.2 12.8 6.1 39.8 19.6 44 22.2 6 3.5 19.9 10.1 21.3 10.1.8 0 1.7.3 2.1.7.7.7.7.7 8.1 2.3 7 1.5 18.7 1.3 24.5-.5 7-2.1 19.7-9.9 20.8-12.7.2-.4.9-1.4 1.6-2.1 2.5-2.6 5.5-8.4 7.1-14 3.3-11.4 1.6-23.4-4.8-34.7-3-5.3-16.7-20-18.6-20-.5 0-1.6-.6-2.3-1.3-3.3-3-30.8-17.6-67.8-35.8-42.9-21.2-55.1-27.4-70.5-35.9-6.2-3.4-19.4-10.5-26-13.9-2.7-1.4-5.3-3-5.6-3.4-.3-.5-.9-.8-1.3-.7-.9.2-9.6-4.2-9.7-4.9-.5-3.2-.2-85.6.3-86.4.6-.9 1.2-.9 2.5.1 1 .6 2.9 1.8 4.3 2.4 1.4.7 5 2.8 8 4.7 3 1.8 5.7 3.4 6 3.3.3 0 3.7 1.9 7.5 4.1 3.9 2.3 7.3 4.1 7.7 4 .3-.2 1.2.4 1.8 1.2.7.8 1.6 1.5 2 1.5.4 0 9.6 5 20.6 11.2 10.9 6.1 21.7 12.1 23.9 13.3 2.2 1.3 7.2 3.9 11 6 3.9 2 7.8 4.4 8.8 5.3.9.8 1.7 1.1 1.7.7 0-.4.8-.2 1.8.7.9.8 3.8 2.5 6.5 3.9 2.6 1.3 4.7 2.7 4.7 3.1 0 .5.6.8 1.3.8.7 0 6.5 2.9 12.8 6.5 22.5 12.9 29.8 15.5 44.7 16.2 18.5.9 32.7-6.6 41.5-21.9 1.5-2.6 2.5-4.8 2.1-4.8-.4 0-.1-.6.5-1.3 1.4-1.7 3-16.6 1.9-17.3-.5-.3-.6-.9-.3-1.4.3-.5 0-2.9-.6-5.2-.7-2.4-1.3-4.5-1.3-4.8-.5-3.2-7.4-13.7-12.6-19-7.5-7.8-10.4-9.8-37.5-25-11-6.2-21.6-12.2-23.5-13.3-3-1.7-15.8-8.9-28.8-16.3-2.1-1.1-6.8-3.8-10.7-5.9-3.8-2.1-8.7-4.9-10.7-6.2-2.1-1.3-3.9-2.3-4.2-2.3-.2 0-5.4-2.9-11.6-6.5-6.2-3.6-11.4-6.5-11.6-6.5-.2 0-2.7-1.4-5.6-3.1-2.9-1.8-7.5-4.4-10.3-5.9-8.7-4.7-14.8-8.2-20.5-11.4-7.6-4.4-17.7-8.5-25.2-10.2-2.7-.7-18.5-1.3-19-.8zM308 543.5c14.4 1.2 27.3 3.6 34 6.2 1.8.7 1.5.7 6.7 2.1 2.3.7 4.5 1.7 4.8 2.2.3.6 1.3 1 2.1 1 1.4 0 12.3 6.2 16 9.1 4 3.2 14.4 14.3 14.9 16 .4 1.1 1 1.9 1.5 1.9 1.3 0 7.6 12.9 10.4 21.5 8.6 26.1 7.8 54.9-2.1 79.9-6.2 15.7-14.2 26.6-25.8 35.1-2.2 1.7-4.2 3.2-4.5 3.6-.6.6-15.4 7.8-18.5 9-8.4 3.1-22.5 6.1-35 7.4-10.3 1.1-38.5.6-47-.9-1.6-.2-4.8-.7-7-1.1-2.2-.3-4.8-.8-5.8-1.1-1.1-.3-2.9-.7-4-.9-5.3-.8-16.5-4.7-25-8.8-27.8-13.3-43.7-36.2-48.5-69.7-1.3-8.8-.5-35.2 1.2-42.5 2.3-9.8 2.2-9.5 4.4-15.1 2.7-6.8 5.6-11.9 10.5-18.4 4.8-6.4 4.5-6 11.6-12.3 8.3-7.4 27.3-17.6 35.5-19.1 1.2-.2 4.8-1.1 8.1-1.9 7.3-1.9 11-2.5 19.5-3.3 3.6-.3 6.6-.7 6.8-.8.4-.5 28.3.2 35.2.9z"/></svg>